<svg width="249" height="28" viewBox="0 0 249 28" fill="none" xmlns="http://www.w3.org/2000/svg">
<rect opacity="0.1" x="138" width="1" height="28" fill="white"/>
<path d="M12.5048 2.36859C5.53906 2.36859 0 7.95167 0 14.8882C0 21.8248 5.53906 27.4925 12.5048 27.4925C19.3867 27.4925 25.0097 21.8248 25.0097 14.8882C24.9258 7.95167 19.3867 2.36859 12.5048 2.36859ZM7.46934 22.0786C6.46223 22.0786 5.53906 21.2326 5.53906 20.1329C5.53906 19.1178 6.37831 18.1873 7.46934 18.1873C8.47644 18.1873 9.39961 19.0332 9.39961 20.1329C9.31569 21.2326 8.47644 22.0786 7.46934 22.0786ZM7.46934 17.6798C6.46223 17.6798 5.53906 16.8338 5.53906 15.7342C5.53906 14.6345 6.37831 13.7885 7.46934 13.7885C8.47644 13.7885 9.39961 14.6345 9.39961 15.7342C9.31569 16.8338 8.47644 17.6798 7.46934 17.6798ZM7.46934 13.281C6.46223 13.281 5.53906 12.4351 5.53906 11.3354C5.53906 10.2357 6.37831 9.38974 7.46934 9.38974C8.47644 9.38974 9.39961 10.2357 9.39961 11.3354C9.39961 12.4351 8.47644 13.281 7.46934 13.281ZM12.4209 20.0484C11.4138 20.0484 10.4906 19.2024 10.4906 18.1027C10.4906 17.003 11.3299 16.1571 12.4209 16.1571C13.428 16.1571 14.3512 17.003 14.3512 18.1027C14.3512 19.2024 13.5119 20.0484 12.4209 20.0484ZM12.4209 15.6496C11.4138 15.6496 10.4906 14.8036 10.4906 13.7039C10.4906 12.6042 11.3299 11.7583 12.4209 11.7583C13.428 11.7583 14.3512 12.6042 14.3512 13.7039C14.3512 14.8036 13.5119 15.6496 12.4209 15.6496ZM12.4209 11.2508C11.4138 11.2508 10.4906 10.4048 10.4906 9.30515C10.4906 8.29004 11.3299 7.35953 12.4209 7.35953C13.428 7.35953 14.3512 8.20545 14.3512 9.30515C14.3512 10.4048 13.5119 11.2508 12.4209 11.2508ZM17.5403 17.6798C16.5332 17.6798 15.6101 16.8338 15.6101 15.7342C15.6101 14.6345 16.4493 13.7885 17.5403 13.7885C18.5475 13.7885 19.4706 14.6345 19.4706 15.7342C19.3867 16.8338 18.5475 17.6798 17.5403 17.6798ZM17.5403 13.281C16.5332 13.281 15.6101 12.4351 15.6101 11.3354C15.6101 10.2357 16.4493 9.38974 17.5403 9.38974C18.5475 9.38974 19.4706 10.2357 19.4706 11.3354C19.4706 12.4351 18.5475 13.281 17.5403 13.281Z" fill="white"/>
<path d="M35.7521 7.444H34.4093L33.4861 4.22949L32.479 7.444H31.1362L30.3809 2.28387H31.8076L32.1433 5.41378L32.9825 2.53765H33.9896L34.745 5.41378L35.0807 2.28387H36.5074L35.7521 7.444Z" fill="white"/>
<path d="M37.3466 1.52266H34.2414C33.9896 1.52266 33.8218 1.43807 33.6539 1.26888C33.4861 1.0997 33.4861 0.930514 33.4861 0.676737V0H34.661V0.338369C34.661 0.507553 34.745 0.592145 34.9128 0.592145H37.3466V1.52266V1.52266Z" fill="white"/>
<path d="M42.0465 7.44412H40.7037L40.6197 6.85198C40.2001 7.35953 39.6126 7.52871 38.9412 7.52871C37.8502 7.52871 37.2627 6.93657 37.2627 5.75228V2.36859H38.6895V5.75228C38.6895 6.34442 38.9412 6.5982 39.5287 6.5982C39.9483 6.5982 40.284 6.34442 40.6197 5.75228V2.36859H42.0465V7.44412Z" fill="white"/>
<path d="M47.082 3.63735C46.4945 3.38357 45.907 3.21439 45.2356 3.21439C44.5642 3.21439 44.2285 3.29898 44.2285 3.55276C44.2285 3.63735 44.3963 3.80653 44.7321 3.89113L45.907 4.1449C47.082 4.48327 47.5855 4.99082 47.5855 5.75215C47.5855 6.93644 46.7463 7.52859 45.1517 7.52859C44.4803 7.52859 43.8928 7.444 43.4732 7.19022C43.0535 6.93644 42.8857 6.59807 42.8857 6.17511V5.32919H44.3124V5.92134C44.3124 6.3443 44.6481 6.59807 45.2356 6.59807C45.8231 6.59807 46.1588 6.3443 46.1588 5.83674C46.1588 5.58297 45.9909 5.41378 45.6552 5.2446C45.4874 5.16001 45.0678 5.07542 44.4803 4.90623C43.9767 4.73705 43.5571 4.65245 43.3053 4.48327C42.9696 4.22949 42.8018 3.89113 42.8018 3.55276C42.8018 2.70684 43.641 2.28387 45.2356 2.28387C46.2427 2.28387 46.998 2.45306 47.5016 2.79143L47.082 3.63735Z" fill="white"/>
<path d="M48.5926 6.25983C48.9283 6.51361 49.3479 6.68279 49.7675 6.68279C50.6907 6.68279 51.1942 6.09065 51.1942 4.99095C51.1942 3.89125 50.6907 3.29911 49.7675 3.29911C49.3479 3.29911 48.9283 3.46829 48.5926 3.72207L48.1729 2.79155C48.6765 2.45318 49.264 2.36859 49.9354 2.36859C50.7746 2.36859 51.3621 2.62237 51.8656 3.04533C52.3692 3.46829 52.537 4.14503 52.537 5.07554C52.537 5.92146 52.2853 6.5982 51.8656 7.10575C51.446 7.52871 50.7746 7.78249 49.9354 7.78249C49.264 7.78249 48.7604 7.6133 48.1729 7.35953L48.5926 6.25983Z" fill="white"/>
<path d="M61.0979 7.44406H59.7551L59.6712 6.85191C59.3355 7.27487 58.8319 7.52865 58.0766 7.52865C56.9856 7.52865 56.482 6.9365 56.482 5.75221V4.14496C56.482 3.55282 56.1463 3.21445 55.5588 3.21445C55.0553 3.21445 54.7196 3.38363 54.5517 3.722L55.3071 4.14496V4.56792C54.9714 4.65252 54.8035 4.99088 54.8035 5.41385V6.17517C54.8035 6.42895 54.8874 6.51354 55.1392 6.51354H55.5588V7.44406H54.3839C54.0482 7.44406 53.7964 7.35946 53.6286 7.19028C53.4607 7.0211 53.2929 6.76732 53.2929 6.42895V5.32925C53.2929 4.8217 53.4607 4.48333 53.8803 4.31415L53.125 3.80659C53.2089 3.38363 53.5446 2.96067 54.0482 2.7069C54.4678 2.45312 55.0553 2.28394 55.6428 2.28394C56.3981 2.28394 56.9856 2.45312 57.4052 2.7069C57.7409 3.04526 57.9087 3.46823 57.9087 4.06037V5.75221C57.9087 6.34436 58.1605 6.59814 58.6641 6.59814C59.0837 6.59814 59.4194 6.34436 59.5872 5.75221V2.36853H61.014V7.44406H61.0979Z" fill="white"/>
<path d="M61.0974 1.52268H56.7333V0.592163H61.0974V1.52268Z" fill="white"/>
<path d="M66.5525 6.09065C66.5525 6.5982 66.3008 6.93657 65.8811 7.19034C65.4615 7.44412 64.958 7.52871 64.2866 7.52871C63.6152 7.52871 63.1116 7.44412 62.692 7.19034C62.2724 6.93657 62.0206 6.51361 62.0206 6.00605V5.16013C62.0206 4.82176 62.1884 4.56799 62.4402 4.22962C62.692 3.97584 62.8598 3.72207 62.8598 3.63747C62.8598 3.3837 62.692 3.21451 62.3563 3.21451H61.9367V2.36859H63.0277C63.783 2.36859 64.2026 2.70696 64.2026 3.3837C64.2026 3.72207 64.0348 4.06043 63.783 4.31421C63.5312 4.65258 63.3634 4.90636 63.3634 5.24472V6.00605C63.3634 6.42901 63.6152 6.5982 64.2026 6.5982C64.7062 6.5982 65.0419 6.42901 65.0419 6.00605V4.31421C65.0419 3.97584 64.874 3.72207 64.5383 3.72207V3.3837L65.2937 2.36859H66.8043L65.8811 3.55288C66.3008 3.63747 66.5525 3.89125 66.5525 4.31421V6.09065V6.09065Z" fill="white"/>
<path d="M122.027 21.7401H125.216V10.4894H122.027V21.7401Z" fill="white"/>
<path d="M90.9744 21.74H93.7439L98.108 10.4893H94.835L92.3172 18.2717L89.7994 10.4893H86.5264L90.9744 21.74Z" fill="white"/>
<path d="M54.4676 16.0723V10.4893H51.6142V11.2506C50.7749 10.8276 49.8518 10.4893 48.8447 10.4893C45.7394 10.4893 43.2217 13.027 43.2217 16.1569C43.2217 19.2868 45.7394 21.8246 48.8447 21.8246C49.8518 21.8246 50.7749 21.5708 51.6142 21.0633V21.74H54.4676V16.2415V16.1569C54.4676 16.0723 54.4676 16.0723 54.4676 16.0723ZM48.9286 19.1177C47.2501 19.1177 45.9912 17.7642 45.9912 16.1569C45.9912 14.4651 47.334 13.1962 48.9286 13.1962C50.6071 13.1962 51.866 14.5497 51.866 16.1569C51.866 17.7642 50.5232 19.1177 48.9286 19.1177Z" fill="white"/>
<path d="M125.216 7.86711C125.216 8.71303 124.545 9.47436 123.622 9.47436C122.782 9.47436 122.027 8.79762 122.027 7.86711C122.027 7.02119 122.699 6.25986 123.622 6.25986C124.461 6.25986 125.216 7.02119 125.216 7.86711Z" fill="white"/>
<path d="M130 7.86702C130 8.71294 129.328 9.47427 128.405 9.47427C127.566 9.47427 126.811 8.79753 126.811 7.86702C126.811 7.0211 127.482 6.25977 128.405 6.25977C129.244 6.25977 130 7.0211 130 7.86702Z" fill="white"/>
<path d="M65.1262 11.42C64.5387 10.7433 63.6155 10.3203 62.4406 10.3203C61.6852 10.3203 60.9299 10.4895 60.5103 10.6587C59.9228 10.8279 59.755 10.997 59.1675 11.1662L58.6639 11.42V10.4895H55.7266V21.7403H58.6639V14.3807L58.7479 14.2961C59.755 13.3656 60.5942 12.8581 61.4335 12.8581C62.0209 12.8581 62.4406 13.0273 62.6923 13.281C63.028 13.5348 63.112 14.127 63.112 15.0575V21.7403H66.1333V14.2961C66.0494 13.0273 65.7136 12.0967 65.1262 11.42Z" fill="white"/>
<path d="M119.425 11.42C118.838 10.7433 117.914 10.3203 116.739 10.3203C115.984 10.3203 115.229 10.4895 114.809 10.6587C114.222 10.8279 114.054 10.997 113.466 11.1662L112.963 11.42V10.4895H110.025V21.7403H112.963V14.3807L113.047 14.2961C114.054 13.3656 114.893 12.8581 115.732 12.8581C116.32 12.8581 116.739 13.0273 116.991 13.281C117.327 13.5348 117.411 14.127 117.411 15.0575V21.7403H120.432V14.2961C120.348 13.0273 120.096 12.0967 119.425 11.42Z" fill="white"/>
<path d="M36.6753 10.2357C35.5842 10.2357 34.4932 10.5741 33.57 11.1662L33.3183 11.3354V10.4895H30.4648V27.4079L31.7237 26.8158C32.6469 26.3928 33.3183 25.4623 33.3183 24.4472V20.8943L33.57 21.0635C34.4932 21.6557 35.5842 21.994 36.6753 21.994C39.8644 21.994 42.55 19.3717 42.55 16.0726C42.55 12.8581 39.9483 10.2357 36.6753 10.2357ZM36.6753 19.1179C34.9968 19.1179 33.654 17.7644 33.654 16.0726C33.654 14.3807 34.9968 13.0273 36.6753 13.0273C38.3538 13.0273 39.6966 14.3807 39.6966 16.0726C39.6966 17.7644 38.3538 19.1179 36.6753 19.1179Z" fill="white"/>
<path d="M126.811 10.4893V23.2627C126.811 25.1237 125.972 25.5467 125.133 25.6313V27.9152C125.385 27.9152 125.636 27.9998 125.972 27.9998C127.315 27.9998 128.07 27.5769 128.826 26.9001C129.581 26.1388 130 24.9545 130 23.4319V10.4893H126.811Z" fill="white"/>
<path d="M75.2808 20.6404C75.2808 20.6404 74.7773 20.0483 74.2737 18.9486L74.1898 18.6948L73.938 18.864C73.6023 19.1178 73.1827 19.2023 72.7631 19.2023C71.8399 19.2023 71.4203 18.6948 71.4203 17.6797V12.3504H74.4416V10.0664H71.4203V7.61322H71.1685H70.3293H68.0633V10.2356H66.7205V12.0966H67.9794V17.5951C67.9794 20.3866 69.1543 21.8247 71.6721 21.8247C73.3506 21.8247 74.3577 21.3171 74.9452 20.8096L75.2808 20.6404Z" fill="white"/>
<path d="M85.8554 16.0725V10.4894H83.0019V11.2507C82.1627 10.8277 81.2395 10.4894 80.2324 10.4894C77.1272 10.4894 74.6094 13.0271 74.6094 16.1571C74.6094 19.287 77.1272 21.8247 80.2324 21.8247C81.2395 21.8247 82.1627 21.571 83.0019 21.0634V21.7401H85.8554V16.2416V16.1571C85.8554 16.0725 85.8554 16.0725 85.8554 16.0725ZM80.2324 19.1178C78.5539 19.1178 77.295 17.7643 77.295 16.1571C77.295 14.4652 78.6378 13.1963 80.2324 13.1963C81.9109 13.1963 83.1698 14.5498 83.1698 16.1571C83.1698 17.7643 81.827 19.1178 80.2324 19.1178Z" fill="white"/>
<path d="M108.767 16.0723V10.4893H105.914V11.2506C105.075 10.8276 104.152 10.4893 103.144 10.4893C100.039 10.4893 97.5215 13.027 97.5215 16.1569C97.5215 19.2868 100.039 21.8246 103.144 21.8246C104.152 21.8246 105.075 21.5708 105.914 21.0633V21.74H108.767V16.2415V16.1569C108.767 16.0723 108.767 16.0723 108.767 16.0723ZM103.228 19.1177C101.55 19.1177 100.291 17.7642 100.291 16.1569C100.291 14.4651 101.634 13.1962 103.228 13.1962C104.907 13.1962 106.166 14.5497 106.166 16.1569C106.166 17.7642 104.823 19.1177 103.228 19.1177Z" fill="white"/>
<path d="M148.865 21V6.68359H150.76V21H148.865ZM153.885 21V10.6289H155.467V12.1035C156.229 10.9642 157.329 10.3945 158.768 10.3945C159.393 10.3945 159.965 10.5085 160.486 10.7363C161.014 10.9577 161.408 11.2507 161.668 11.6152C161.928 11.9798 162.111 12.4128 162.215 12.9141C162.28 13.2396 162.312 13.8092 162.312 14.623V21H160.555V14.6914C160.555 13.9753 160.486 13.4414 160.35 13.0898C160.213 12.7318 159.969 12.4486 159.617 12.2402C159.272 12.0254 158.865 11.918 158.396 11.918C157.648 11.918 157 12.1556 156.453 12.6309C155.913 13.1061 155.643 14.0078 155.643 15.3359V21H153.885ZM168.855 19.4277L169.109 20.9805C168.615 21.0846 168.172 21.1367 167.781 21.1367C167.143 21.1367 166.648 21.0358 166.297 20.834C165.945 20.6322 165.698 20.3685 165.555 20.043C165.411 19.7109 165.34 19.0176 165.34 17.9629V11.9961H164.051V10.6289H165.34V8.06055L167.088 7.00586V10.6289H168.855V11.9961H167.088V18.0605C167.088 18.5618 167.117 18.8841 167.176 19.0273C167.241 19.1706 167.342 19.2845 167.479 19.3691C167.622 19.4538 167.824 19.4961 168.084 19.4961C168.279 19.4961 168.536 19.4733 168.855 19.4277ZM177.684 17.6602L179.5 17.8848C179.214 18.946 178.683 19.7695 177.908 20.3555C177.133 20.9414 176.144 21.2344 174.939 21.2344C173.423 21.2344 172.218 20.7689 171.326 19.8379C170.441 18.9004 169.998 17.5885 169.998 15.9023C169.998 14.1576 170.447 12.8034 171.346 11.8398C172.244 10.8763 173.41 10.3945 174.842 10.3945C176.229 10.3945 177.361 10.8665 178.24 11.8105C179.119 12.7546 179.559 14.0827 179.559 15.7949C179.559 15.8991 179.555 16.0553 179.549 16.2637H171.814C171.88 17.403 172.202 18.2754 172.781 18.8809C173.361 19.4863 174.083 19.7891 174.949 19.7891C175.594 19.7891 176.144 19.6198 176.6 19.2812C177.055 18.9427 177.417 18.4023 177.684 17.6602ZM171.912 14.8184H177.703C177.625 13.946 177.404 13.2917 177.039 12.8555C176.479 12.1784 175.753 11.8398 174.861 11.8398C174.054 11.8398 173.374 12.11 172.82 12.6504C172.273 13.1908 171.971 13.9134 171.912 14.8184ZM181.678 21V6.68359H183.436V21H181.678ZM186.131 21V6.68359H187.889V21H186.131ZM190.633 8.70508V6.68359H192.391V8.70508H190.633ZM190.633 21V10.6289H192.391V21H190.633ZM194.754 21.8594L196.463 22.1133C196.535 22.6406 196.733 23.0247 197.059 23.2656C197.495 23.5911 198.09 23.7539 198.846 23.7539C199.66 23.7539 200.288 23.5911 200.73 23.2656C201.173 22.9401 201.473 22.4844 201.629 21.8984C201.72 21.5404 201.762 20.7884 201.756 19.6426C200.988 20.5475 200.031 21 198.885 21C197.459 21 196.355 20.4857 195.574 19.457C194.793 18.4284 194.402 17.1947 194.402 15.7559C194.402 14.7663 194.581 13.8548 194.939 13.0215C195.298 12.1816 195.815 11.5339 196.492 11.0781C197.176 10.6224 197.977 10.3945 198.895 10.3945C200.118 10.3945 201.128 10.8893 201.922 11.8789V10.6289H203.543V19.5938C203.543 21.2083 203.377 22.3509 203.045 23.0215C202.719 23.6986 202.199 24.2324 201.482 24.623C200.773 25.0137 199.897 25.209 198.855 25.209C197.618 25.209 196.619 24.929 195.857 24.3691C195.096 23.8158 194.728 22.9792 194.754 21.8594ZM196.209 15.6289C196.209 16.9896 196.479 17.9824 197.02 18.6074C197.56 19.2324 198.237 19.5449 199.051 19.5449C199.858 19.5449 200.535 19.2357 201.082 18.6172C201.629 17.9922 201.902 17.0156 201.902 15.6875C201.902 14.418 201.619 13.4609 201.053 12.8164C200.493 12.1719 199.816 11.8496 199.021 11.8496C198.24 11.8496 197.576 12.1686 197.029 12.8066C196.482 13.4382 196.209 14.3789 196.209 15.6289ZM213.309 17.6602L215.125 17.8848C214.839 18.946 214.308 19.7695 213.533 20.3555C212.758 20.9414 211.769 21.2344 210.564 21.2344C209.048 21.2344 207.843 20.7689 206.951 19.8379C206.066 18.9004 205.623 17.5885 205.623 15.9023C205.623 14.1576 206.072 12.8034 206.971 11.8398C207.869 10.8763 209.035 10.3945 210.467 10.3945C211.854 10.3945 212.986 10.8665 213.865 11.8105C214.744 12.7546 215.184 14.0827 215.184 15.7949C215.184 15.8991 215.18 16.0553 215.174 16.2637H207.439C207.505 17.403 207.827 18.2754 208.406 18.8809C208.986 19.4863 209.708 19.7891 210.574 19.7891C211.219 19.7891 211.769 19.6198 212.225 19.2812C212.68 18.9427 213.042 18.4023 213.309 17.6602ZM207.537 14.8184H213.328C213.25 13.946 213.029 13.2917 212.664 12.8555C212.104 12.1784 211.378 11.8398 210.486 11.8398C209.679 11.8398 208.999 12.11 208.445 12.6504C207.898 13.1908 207.596 13.9134 207.537 14.8184ZM217.342 21V10.6289H218.924V12.1035C219.686 10.9642 220.786 10.3945 222.225 10.3945C222.85 10.3945 223.423 10.5085 223.943 10.7363C224.471 10.9577 224.865 11.2507 225.125 11.6152C225.385 11.9798 225.568 12.4128 225.672 12.9141C225.737 13.2396 225.77 13.8092 225.77 14.623V21H224.012V14.6914C224.012 13.9753 223.943 13.4414 223.807 13.0898C223.67 12.7318 223.426 12.4486 223.074 12.2402C222.729 12.0254 222.322 11.918 221.854 11.918C221.105 11.918 220.457 12.1556 219.91 12.6309C219.37 13.1061 219.1 14.0078 219.1 15.3359V21H217.342ZM235.242 17.2012L236.971 17.4258C236.782 18.6172 236.297 19.5514 235.516 20.2285C234.741 20.8991 233.787 21.2344 232.654 21.2344C231.235 21.2344 230.092 20.7721 229.227 19.8477C228.367 18.9167 227.938 17.5853 227.938 15.8535C227.938 14.7337 228.123 13.7539 228.494 12.9141C228.865 12.0742 229.428 11.446 230.184 11.0293C230.945 10.6061 231.772 10.3945 232.664 10.3945C233.79 10.3945 234.712 10.681 235.428 11.2539C236.144 11.8203 236.603 12.6276 236.805 13.6758L235.096 13.9395C234.933 13.2428 234.643 12.7188 234.227 12.3672C233.816 12.0156 233.318 11.8398 232.732 11.8398C231.847 11.8398 231.128 12.1589 230.574 12.7969C230.021 13.4284 229.744 14.431 229.744 15.8047C229.744 17.1979 230.011 18.2103 230.545 18.8418C231.079 19.4733 231.775 19.7891 232.635 19.7891C233.325 19.7891 233.901 19.5775 234.363 19.1543C234.826 18.7311 235.118 18.0801 235.242 17.2012ZM245.574 17.6602L247.391 17.8848C247.104 18.946 246.574 19.7695 245.799 20.3555C245.024 20.9414 244.035 21.2344 242.83 21.2344C241.313 21.2344 240.109 20.7689 239.217 19.8379C238.331 18.9004 237.889 17.5885 237.889 15.9023C237.889 14.1576 238.338 12.8034 239.236 11.8398C240.135 10.8763 241.3 10.3945 242.732 10.3945C244.119 10.3945 245.252 10.8665 246.131 11.8105C247.01 12.7546 247.449 14.0827 247.449 15.7949C247.449 15.8991 247.446 16.0553 247.439 16.2637H239.705C239.77 17.403 240.092 18.2754 240.672 18.8809C241.251 19.4863 241.974 19.7891 242.84 19.7891C243.484 19.7891 244.035 19.6198 244.49 19.2812C244.946 18.9427 245.307 18.4023 245.574 17.6602ZM239.803 14.8184H245.594C245.516 13.946 245.294 13.2917 244.93 12.8555C244.37 12.1784 243.644 11.8398 242.752 11.8398C241.945 11.8398 241.264 12.11 240.711 12.6504C240.164 13.1908 239.861 13.9134 239.803 14.8184Z" fill="white"/>
</svg>
